<?xml version="1.0" encoding="utf-8"?>
<!-- Generator: Adobe Illustrator 26.0.2, SVG Export Plug-In . SVG Version: 6.00 Build 0)  -->
<svg version="1.1" id="Ebene_1" xmlns="http://www.w3.org/2000/svg" xmlns:xlink="http://www.w3.org/1999/xlink" x="0px" y="0px"
	 viewBox="0 0 1365.1 1365.1" style="enable-background:new 0 0 1365.1 1365.1;" xml:space="preserve">
<style type="text/css">
	.st0{fill:#FFFFFF;}
</style>
<g>
	<g>
		<g>
			<path class="st0" d="M674.5,1365.2c-0.7,0-1.4,0-2,0C673.1,1365.1,673.8,1365.2,674.5,1365.2z"/>
			<path class="st0" d="M693.3,1365.1c-0.9,0-1.9,0-2.8,0C691.4,1365.2,692.3,1365.1,693.3,1365.1z"/>
			<path class="st0" d="M665.9,1365c-0.5,0-1,0-1.5,0C664.8,1365,665.4,1365,665.9,1365z"/>
			<path class="st0" d="M701.8,1364.9c-1.2,0-2.4,0.1-3.5,0.1C699.4,1365,700.6,1365,701.8,1364.9z"/>
			<path class="st0" d="M682.6,0.1C305.6,0.1,0,305.7,0,682.7c0,340.7,249.6,623.1,575.9,674.3V880H402.6V682.7h173.4V532.2
				c0-171.1,101.9-265.6,257.8-265.6c74.7,0,152.8,13.3,152.8,13.3v168h-86.1c-84.9,0-111.2,52.7-111.2,106.6v128h189.3L948.3,880
				h-159v476.9c326.3-51.2,575.9-333.6,575.9-674.3C1365.1,305.7,1059.5,0.1,682.6,0.1z"/>
			<path class="st0" d="M762.9,1360.5c-2.1,0.2-4.3,0.5-6.4,0.7C758.7,1361,760.8,1360.8,762.9,1360.5z"/>
			<path class="st0" d="M770.9,1359.5c-2.4,0.3-4.8,0.6-7.2,0.9C766.1,1360.1,768.5,1359.9,770.9,1359.5z"/>
			<path class="st0" d="M722.6,1364c-5.6,0.3-11.2,0.6-16.9,0.8C711.3,1364.6,717,1364.4,722.6,1364z"/>
			<path class="st0" d="M756.3,1361.3c-10.9,1.2-21.9,2.1-32.9,2.7C734.4,1363.4,745.4,1362.4,756.3,1361.3z"/>
		</g>
	</g>
</g>
</svg>
