<?xml version="1.0" encoding="utf-8"?>
<!-- Generator: Adobe Illustrator 19.0.0, SVG Export Plug-In . SVG Version: 6.00 Build 0)  -->
<svg version="1.0" id="Ebene_1" xmlns="http://www.w3.org/2000/svg" xmlns:xlink="http://www.w3.org/1999/xlink" x="0px" y="0px"
	 viewBox="0 0 6236.221 1275.591" style="enable-background:new 0 0 6236.221 1275.591;" xml:space="preserve">
<radialGradient id="XMLID_208_" cx="3111.9131" cy="927.7604" r="1439.2274" gradientTransform="matrix(0.4733 -0.8809 288.6443 155.0873 -266153.75 -140214.8125)" gradientUnits="userSpaceOnUse">
	<stop  offset="0" style="stop-color:#16427F"/>
	<stop  offset="0.2661" style="stop-color:#1E4E8C"/>
	<stop  offset="0.8126" style="stop-color:#3172B3"/>
	<stop  offset="1" style="stop-color:#3A81C3"/>
</radialGradient>
<rect id="XMLID_1_" x="-61.452" y="-41.046" style="display:none;fill:url(#XMLID_208_);stroke:#000000;stroke-miterlimit:10;" width="6346.73" height="1937.612"/>
<g id="Untertitel">
	<g id="XMLID_4_">
		<path id="XMLID_191_" style="fill:#FFFFFF;" d="M1440.239,904.12c0-9.443-0.262-59.808-1.312-64.792
			c-4.459-1.049-22.296-2.623-28.067-3.147l-0.787-5.509l56.66-0.262c24.919,0,56.135,0.262,73.972,7.345
			c13.903,5.508,22.559,15.477,22.559,29.903c0,16.526-16.788,38.298-36.986,49.577c2.886,6.559,45.118,75.284,72.399,104.139
			l-11.542,1.836c-18.362-8.394-88.138-88.924-92.334-94.433c-9.968,0.787-20.723,1.574-25.182,1.574v6.82
			c0,17.05,0.524,57.446,1.312,69.513c4.459,1.312,21.772,3.147,27.543,3.673l1.049,5.508c-6.558-0.524-33.052-1.049-45.118-1.049
			c-10.755,0-38.298,0.524-44.331,1.049l1.049-5.508c3.672-0.263,20.46-1.837,27.805-3.673c1.049-7.607,1.312-59.021,1.312-86.563
			V904.12z M1469.618,922.219c9.443,0,20.723-0.787,32.002-4.984c11.279-4.196,29.904-16.263,29.904-42.232
			c0-16.788-15.214-37.248-60.595-37.248c-0.787,10.755-1.312,57.709-1.312,76.333V922.219z"/>
		<path id="XMLID_194_" style="fill:#FFFFFF;" d="M1633.558,989.633c-19.149-19.673-25.182-38.822-25.182-63.479
			c0-51.938,42.757-99.154,115.156-99.154c27.805,0,49.84,4.459,72.661,21.247c20.723,15.214,31.74,40.658,31.74,65.054
			c0,64.267-48.791,105.713-113.319,105.713C1688.12,1019.013,1657.953,1014.553,1633.558,989.633z M1795.93,932.45
			c0-55.611-38.56-95.482-82.104-95.482c-35.937,0-75.284,24.133-75.284,78.169c0,46.955,37.773,93.122,88.924,93.122
			C1764.978,1008.258,1795.93,974.419,1795.93,932.45z"/>
		<path id="XMLID_197_" style="fill:#FFFFFF;" d="M2030.959,888.38c0-4.983-0.787-17.313-1.574-21.771
			c-4.984-11.542-29.379-30.429-63.218-30.429c-47.741,0-77.907,34.625-77.907,75.547c0,51.15,42.233,94.433,97.581,94.433
			c19.936,0,43.544-3.147,62.168-14.165l-3.673,11.279c-6.033,4.984-32.527,15.739-73.71,15.739c-9.706,0-38.298-1.05-59.545-11.542
			c-34.101-16.788-54.299-46.692-54.299-80.269c0-36.199,18.362-62.955,41.446-78.432c27.28-18.361,51.676-21.771,78.169-21.771
			c23.083,0,47.479,4.722,54.824,6.82c1.574-3.41,4.721-20.198,5.508-23.347l6.033-1.312c-3.935,28.854-5.508,56.136-5.771,81.056
			L2030.959,888.38z"/>
		<path id="XMLID_199_" style="fill:#FFFFFF;" d="M2097.321,907.53c0-24.658-0.525-61.119-1.312-68.202
			c-6.296-1.049-21.772-3.147-28.068-3.672l-0.787-5.509c5.247,0.524,35.413,1.05,46.167,1.05c9.706,0,38.036-0.525,43.02-1.05
			l-1.049,5.509c-3.148,0.524-20.723,2.623-26.756,3.672c-1.049,8.395-1.312,49.053-1.312,70.563v8.132
			c17.05-14.952,76.595-65.841,84.203-78.694c-6.033-1.573-13.641-2.885-19.411-3.672l-1.049-5.509
			c11.017,0.524,29.641,1.05,39.872,1.05c7.607,0,19.673-0.525,28.592-1.05l-1.574,5.509c-3.935,0.524-10.493,1.312-17.313,3.147
			c-11.279,6.033-60.07,46.954-71.087,56.922c10.23,16.264,85.776,111.222,99.417,123.813l-8.919,2.886
			c-20.46-7.87-108.86-98.368-116.205-106.237c-4.984,3.672-13.116,10.492-16.525,13.641v6.295c0,22.821,0.262,59.546,1.312,69.251
			c6.82,2.886,25.969,4.459,29.904,4.984l0.524,5.508c-4.984-0.524-32.789-1.049-46.954-1.049c-12.329,0-37.249,0.524-44.855,1.049
			l1.049-5.508c6.296-0.525,21.51-2.099,27.806-3.673c0.787-11.542,1.312-46.691,1.312-84.203V907.53z"/>
	</g>
	<g id="XMLID_5_">
		<path id="XMLID_184_" style="fill:#E30613;" d="M2459.522,916.186c0,22.297,0.262,82.891,1.312,90.498
			c6.295,1.05,25.182,2.886,33.314,3.673l1.312,5.508c-8.656-0.524-38.036-1.049-50.102-1.049c-13.116,0-38.035,0.524-45.38,1.049
			l1.049-5.508c3.935-0.525,20.985-2.361,27.806-3.673c1.049-11.542,1.312-67.414,1.312-91.81v-10.493
			c0-8.394-0.263-56.135-1.312-65.054c-4.984-1.836-21.772-3.147-28.068-3.672l-0.787-5.509c7.87,0,46.167-0.263,58.234-0.263
			c28.592,0,50.364,2.361,63.218,7.607c23.346,9.706,25.707,25.707,25.707,32.265c0,17.837-7.607,31.216-18.1,41.708
			c-17.313,17.313-45.643,24.396-55.086,25.707l0.787-6.559c9.443-2.36,41.183-11.804,41.183-51.413
			c0-16.001-7.869-29.117-21.248-35.675c-8.656-4.197-22.296-5.771-33.838-5.771c-1.049,7.606-1.312,44.855-1.312,67.414V916.186z"
			/>
		<path id="XMLID_186_" style="fill:#E30613;" d="M2594.611,989.633c-19.149-19.673-25.182-38.822-25.182-63.479
			c0-51.938,42.757-99.154,115.156-99.154c27.806,0,49.84,4.459,72.661,21.247c20.723,15.214,31.74,40.658,31.74,65.054
			c0,64.267-48.791,105.713-113.32,105.713C2649.172,1019.013,2619.006,1014.553,2594.611,989.633z M2756.983,932.45
			c0-55.611-38.56-95.482-82.104-95.482c-35.937,0-75.284,24.133-75.284,78.169c0,46.955,37.773,93.122,88.924,93.122
			C2726.03,1008.258,2756.983,974.419,2756.983,932.45z"/>
		<path id="XMLID_189_" style="fill:#E30613;" d="M2870.301,916.186c0,22.297,0.262,82.891,1.312,90.498
			c6.295,1.05,25.182,2.886,33.313,3.673l1.312,5.508c-8.656-0.524-38.035-1.049-50.102-1.049c-13.116,0-38.036,0.524-45.381,1.049
			l1.05-5.508c3.935-0.525,20.984-2.361,27.805-3.673c1.05-11.542,1.312-67.414,1.312-91.81v-10.493
			c0-8.394-0.262-56.135-1.312-65.054c-4.983-1.836-21.771-3.147-28.067-3.672l-0.787-5.509c7.87,0,46.167-0.263,58.234-0.263
			c28.592,0,50.364,2.361,63.217,7.607c23.347,9.706,25.707,25.707,25.707,32.265c0,17.837-7.607,31.216-18.1,41.708
			c-17.313,17.313-45.643,24.396-55.086,25.707l0.787-6.559c9.443-2.36,41.184-11.804,41.184-51.413
			c0-16.001-7.87-29.117-21.248-35.675c-8.656-4.197-22.297-5.771-33.838-5.771c-1.05,7.606-1.312,44.855-1.312,67.414V916.186z"/>
	</g>
	<g id="XMLID_6_">
		<path id="XMLID_163_" style="fill:#FFFFFF;" d="M3070.828,830.147c8.395,0.524,23.084,1.05,37.773,1.05
			c16.264,0,39.609-0.525,45.38-1.05l-1.312,5.509c-5.509,0.524-20.198,2.099-24.657,3.672
			c1.836,8.919,53.25,129.846,60.069,138.239c6.034-12.066,53.513-110.434,58.759-138.239c-4.984-1.049-15.739-2.36-24.133-3.672
			l-1.312-5.509c3.672,0.524,22.297,1.05,38.298,1.05c12.328,0,23.083-0.525,29.379-1.05l-1.312,5.509
			c-4.984,1.049-9.181,2.099-16.001,3.672c-5.509,3.148-91.023,178.636-94.433,187.03c-8.395-14.69-76.334-169.192-89.188-187.03
			c-3.41-1.049-7.869-2.36-16.263-3.672L3070.828,830.147z"/>
		<path id="XMLID_165_" style="fill:#FFFFFF;" d="M3347.567,923.531c0,34.101,0.262,77.907,1.312,83.153
			c6.558,1.574,22.297,3.147,27.543,3.673l1.312,5.508c-5.771-0.524-33.052-1.049-49.315-1.049c-8.918,0-33.051,0.524-40.921,1.049
			l1.05-5.508c4.459-0.263,22.296-2.623,27.805-3.673c1.05-11.017,1.312-59.545,1.312-85.252v-15.477
			c0-8.656-0.262-57.709-1.312-66.628c-5.246-1.049-22.559-3.147-27.543-3.672l-1.312-5.509c4.984,0.524,29.117,1.05,49.84,1.05
			c13.378,0,35.937-0.525,40.396-1.05l-1.312,5.509c-5.246,0.524-18.1,2.623-27.543,3.672c-1.05,5.247-1.312,35.675-1.312,67.939
			V923.531z"/>
		<path id="XMLID_167_" style="fill:#FFFFFF;" d="M3433.075,912.776c0-23.608-0.786-65.316-1.836-73.448
			c-4.984-1.049-20.985-2.885-27.28-3.672l-1.05-5.509c6.296,0.263,14.952,0.524,23.608,0.787c8.656,0,17.313,0.262,23.084,0.262
			c8.394,0,70.037,0,77.12-1.836c0.787-3.147,1.574-7.606,2.099-12.328l6.033-1.05c-1.312,5.509-4.722,46.167-5.246,54.299
			l-5.771-1.836c0-1.836,0.263-13.641,0-18.887c-4.722-7.607-45.118-11.018-59.021-11.018c-0.787,3.673-1.836,54.3-1.836,69.776
			v5.246c22.559,0,48.003-1.836,54.299-4.197c1.312-3.935,2.099-7.607,2.623-11.279l5.509-0.524
			c-0.787,4.722-5.509,40.658-6.82,49.053l-4.984-2.099c0.263-5.509,0.525-12.329,0.525-17.575
			c-8.132-4.197-28.593-5.771-51.151-5.771v5.247c0,16.001,1.049,73.186,1.836,80.792c26.231,0,50.889-2.099,62.955-8.918
			c2.886-9.182,4.197-17.313,5.771-23.084l6.033-1.574c-1.837,7.607-7.607,47.479-8.656,60.595l-5.509-1.049
			c0-7.083,0-11.805-0.263-16.002c-7.606-1.312-65.841-2.36-82.366-2.36c-8.919,0-29.642,0.524-39.872,1.049l1.312-5.508
			c4.197-0.263,19.937-1.837,27.019-3.673c1.05-4.722,1.836-52.987,1.836-81.842V912.776z"/>
		<path id="XMLID_169_" style="fill:#FFFFFF;" d="M3600.166,903.332c0-14.952-0.262-55.61-1.312-64.005
			c-5.771-1.049-21.247-3.147-28.067-3.672l-0.787-5.509c6.558,0.524,29.379,1.05,45.381,1.05c17.574,0,43.02-0.525,48.266-1.05
			l-1.312,5.509c-6.296,0.524-20.461,2.623-30.953,3.672c-1.05,8.395-1.312,46.168-1.312,67.152v9.443
			c0,34.363,0.262,84.728,1.312,90.498c31.215,0,52.725-6.819,62.692-13.378c3.936-8.918,7.346-22.559,9.443-29.903l6.296-1.049
			c-5.246,23.346-10.23,51.15-13.902,86.301l-6.033-1.312c0-3.673,1.312-23.608,1.312-30.69c-5.771-0.525-62.431-1.574-76.596-1.574
			c-13.116,0-37.249,0.524-44.594,1.049l1.05-5.508c3.935-0.263,22.296-1.837,27.805-3.673c1.05-11.542,1.312-62.168,1.312-88.138
			V903.332z"/>
		<path id="XMLID_171_" style="fill:#FFFFFF;" d="M3754.665,912.776c0-23.608-0.786-65.316-1.836-73.448
			c-4.984-1.049-20.985-2.885-27.28-3.672l-1.05-5.509c6.296,0.263,14.952,0.524,23.608,0.787c8.656,0,17.313,0.262,23.084,0.262
			c8.394,0,70.037,0,77.12-1.836c0.787-3.147,1.574-7.606,2.099-12.328l6.033-1.05c-1.312,5.509-4.722,46.167-5.246,54.299
			l-5.771-1.836c0-1.836,0.263-13.641,0-18.887c-4.722-7.607-45.118-11.018-59.021-11.018c-0.787,3.673-1.836,54.3-1.836,69.776
			v5.246c22.559,0,48.003-1.836,54.299-4.197c1.312-3.935,2.099-7.607,2.623-11.279l5.509-0.524
			c-0.787,4.722-5.509,40.658-6.82,49.053l-4.984-2.099c0.263-5.509,0.525-12.329,0.525-17.575
			c-8.132-4.197-28.593-5.771-51.151-5.771v5.247c0,16.001,1.049,73.186,1.836,80.792c26.231,0,50.889-2.099,62.955-8.918
			c2.886-9.182,4.197-17.313,5.771-23.084l6.033-1.574c-1.837,7.607-7.607,47.479-8.656,60.595l-5.509-1.049
			c0-7.083,0-11.805-0.263-16.002c-7.606-1.312-65.841-2.36-82.366-2.36c-8.919,0-29.642,0.524-39.872,1.049l1.312-5.508
			c4.197-0.263,19.937-1.837,27.019-3.673c1.05-4.722,1.836-52.987,1.836-81.842V912.776z"/>
		<path id="XMLID_173_" style="fill:#FFFFFF;" d="M3895.525,1041.31c0.525-3.673,4.197-32.79,4.197-43.02
			c0-6.82,1.574-35.15,0.787-41.446l6.033,1.574c-0.263,3.41,1.049,18.362,1.836,23.084c7.083,16.788,22.56,28.592,40.659,28.592
			c20.723,0,37.248-13.641,37.248-33.052c0-21.247-16.525-31.739-33.576-42.757c-25.706-16.788-46.167-31.478-46.167-61.119
			c0-20.461,15.214-46.167,54.037-46.167c15.476,0,29.116,3.147,35.412,4.722c1.836-6.296,3.147-14.165,4.722-21.248l6.033-0.787
			c-3.673,25.97-6.296,50.364-6.296,71.874l-6.033-2.623c0-8.918-0.524-15.214-1.049-19.936
			c-2.886-9.443-16.526-23.608-34.888-23.608c-22.56,0-32.003,14.428-32.003,26.231c0,17.051,17.838,26.231,37.773,38.822
			c21.772,13.641,43.807,28.33,43.807,61.382c0,36.462-28.854,57.185-64.529,57.185c-12.591,0-28.854-2.623-36.199-6.558
			c-1.312,4.983-3.935,17.574-5.771,27.28L3895.525,1041.31z"/>
		<path id="XMLID_175_" style="fill:#FFFFFF;" d="M4280.334,1010.357c3.672-0.263,23.607-2.623,28.854-3.148
			c-0.525-9.705-23.347-127.746-26.494-147.158h-1.049c-7.083,16.002-58.759,141.912-66.628,156.864
			c-7.345-16.264-56.66-147.158-59.808-157.126h-1.049c-6.82,40.134-22.297,113.057-21.248,146.896
			c4.722,1.05,19.411,3.147,23.346,3.673l1.05,5.508c-3.673-0.524-34.101-1.049-39.085-1.049c-7.082,0-20.46,0.524-29.117,1.049
			l1.837-5.508c4.459-0.787,12.853-1.837,18.624-3.41c5.771-16.526,34.363-146.109,38.298-167.619
			c-7.083-1.049-23.084-3.147-25.969-3.672l-1.574-5.509c3.41,0.524,23.87,1.05,37.773,1.05c11.279,0,32.002-0.525,39.347-1.05
			l-1.049,5.509c-7.345,0.787-14.69,2.623-19.674,3.672c7.607,23.871,39.609,109.647,47.741,129.583
			c7.607-14.951,52.987-123.55,53.512-129.583c-4.983-1.836-13.115-2.885-17.837-3.672l-1.312-5.509
			c8.394,0.524,26.23,1.05,35.412,1.05c8.394,0,30.428-0.525,36.462-1.05l-0.787,5.509c-3.673,0.524-16.526,2.36-22.034,3.672
			c4.983,29.38,29.903,150.831,34.362,167.356c6.559,1.574,17.051,2.886,21.772,3.673l1.312,5.508
			c-8.919-0.524-24.657-1.049-36.986-1.049c-12.066,0-40.921,0.524-48.528,1.049L4280.334,1010.357z"/>
		<path id="XMLID_177_" style="fill:#FFFFFF;" d="M4410.176,912.776c0-23.608-0.787-65.316-1.836-73.448
			c-4.984-1.049-20.985-2.885-27.28-3.672l-1.05-5.509c6.296,0.263,14.952,0.524,23.608,0.787c8.656,0,17.313,0.262,23.084,0.262
			c8.394,0,70.037,0,77.12-1.836c0.787-3.147,1.574-7.606,2.099-12.328l6.033-1.05c-1.312,5.509-4.722,46.167-5.246,54.299
			l-5.771-1.836c0-1.836,0.263-13.641,0-18.887c-4.722-7.607-45.118-11.018-59.021-11.018c-0.787,3.673-1.836,54.3-1.836,69.776
			v5.246c22.559,0,48.003-1.836,54.299-4.197c1.312-3.935,2.099-7.607,2.623-11.279l5.509-0.524
			c-0.787,4.722-5.509,40.658-6.82,49.053l-4.984-2.099c0.263-5.509,0.525-12.329,0.525-17.575
			c-8.132-4.197-28.593-5.771-51.151-5.771v5.247c0,16.001,1.049,73.186,1.836,80.792c26.231,0,50.889-2.099,62.955-8.918
			c2.886-9.182,4.197-17.313,5.771-23.084l6.033-1.574c-1.837,7.607-7.607,47.479-8.656,60.595l-5.509-1.049
			c0-7.083,0-11.805-0.263-16.002c-7.606-1.312-65.841-2.36-82.366-2.36c-8.919,0-29.642,0.524-39.872,1.049l1.312-5.508
			c4.197-0.263,19.937-1.837,27.019-3.673c1.049-4.722,1.836-52.987,1.836-81.842V912.776z"/>
		<path id="XMLID_179_" style="fill:#FFFFFF;" d="M4577.267,905.693c0-8.394-0.262-57.709-1.312-66.365
			c-4.722-1.049-20.984-3.147-27.543-3.672l-1.312-5.509c4.46,0.524,29.379,1.05,46.167,1.05c16.264,0,38.561-0.525,42.758-1.05
			l-1.312,5.509c-7.345,0.524-21.248,2.623-25.444,3.672c-1.05,7.083-2.099,38.036-2.099,60.595v12.854
			c6.558,0,98.367,1.049,108.86-0.787v-12.066c0-20.46,0-54.036-1.574-60.595c-4.459-1.049-18.362-3.147-25.969-3.672l-1.312-5.509
			c4.459,0.524,28.854,1.05,45.117,1.05c17.051,0,39.085-0.525,43.807-1.05l-1.573,5.509c-5.247,0.524-19.149,2.623-26.757,3.672
			c-1.312,5.247-1.836,59.283-1.836,66.365v18.362c0,30.429,0.524,73.71,2.361,82.629c5.246,1.05,21.247,3.41,26.493,3.673
			l1.312,5.508c-4.983-0.524-31.74-1.049-44.068-1.049c-11.279,0-35.938,0.524-44.855,1.049l1.312-5.508
			c3.935-0.263,21.247-2.623,25.969-3.673c1.574-8.919,1.574-42.232,1.574-70.038v-15.214c-12.329,0.263-105.188,5.246-108.86,6.033
			v9.181c0,26.757,1.049,60.333,2.099,70.038c7.082,1.574,20.198,3.41,25.444,3.673l1.312,5.508
			c-5.509-0.524-31.478-1.049-42.758-1.049c-13.64,0-38.297,0.524-46.167,1.049l1.574-5.508c6.033-0.263,22.297-2.623,27.28-3.673
			c1.05-12.329,1.312-56.397,1.312-76.333V905.693z"/>
		<path id="XMLID_181_" style="fill:#FFFFFF;" d="M4831.183,904.12c0-9.443-0.263-59.808-1.312-64.792
			c-4.46-1.049-22.297-2.623-28.068-3.147l-0.786-5.509l56.659-0.262c24.92,0,56.136,0.262,73.973,7.345
			c13.902,5.508,22.56,15.477,22.56,29.903c0,16.526-16.788,38.298-36.986,49.577c2.885,6.559,45.117,75.284,72.398,104.139
			l-11.542,1.837c-18.362-8.395-88.138-88.925-92.335-94.434c-9.968,0.787-20.723,1.574-25.182,1.574v6.82
			c0,17.05,0.524,57.446,1.312,69.513c4.459,1.312,21.772,3.147,27.543,3.673l1.049,5.508c-6.558-0.524-33.051-1.049-45.117-1.049
			c-10.755,0-38.298,0.524-44.331,1.049l1.049-5.508c3.673-0.263,20.461-1.837,27.806-3.673c1.049-7.607,1.312-59.021,1.312-86.563
			V904.12z M4860.562,922.219c9.443,0,20.723-0.787,32.002-4.984c11.28-4.196,29.904-16.263,29.904-42.232
			c0-16.788-15.215-37.248-60.595-37.248c-0.787,10.755-1.312,57.709-1.312,76.333V922.219z"/>
	</g>
</g>
<g id="Titel">
	<g id="XMLID_69_">
		<path id="XMLID_152_" style="fill:#E30613;" d="M3783.565,706.218c1.1-7.7,8.8-68.751,8.8-90.201c0-14.3,3.3-73.7,1.65-86.9
			l12.649,3.301c-0.55,7.149,2.2,38.5,3.851,48.399c14.85,35.2,47.3,59.951,85.25,59.951c43.45,0,78.101-28.601,78.101-69.301
			c0-44.55-34.65-66.551-70.4-89.65c-53.9-35.2-96.801-66-96.801-128.15c0-42.9,31.9-96.801,113.301-96.801
			c32.45,0,61.051,6.6,74.251,9.899c3.85-13.199,6.6-29.7,9.899-44.55l12.65-1.65c-7.7,54.45-13.2,105.601-13.2,150.701l-12.65-5.5
			c0-18.7-1.1-31.9-2.199-41.8c-6.051-19.801-34.65-49.501-73.15-49.501c-47.301,0-67.101,30.25-67.101,55.001
			c0,35.75,37.4,55,79.2,81.4c45.65,28.6,91.851,59.4,91.851,128.7c0,76.45-60.5,119.9-135.301,119.9c-26.4,0-60.5-5.5-75.9-13.75
			c-2.75,10.45-8.25,36.851-12.101,57.201L3783.565,706.218z"/>
		<path id="XMLID_154_" style="fill:#E30613;" d="M4226.308,423.516c0-40.7-1.1-122.101-2.75-134.75c-88,0-127.6,13.75-142.45,23.1
			c-4.4,12.101-7.7,33.55-11,51.7l-12.65,3.3c2.2-26.399,8.8-95.15,8.25-138.601l12.65,2.2c0.55,7.15,1.649,24.2,3.3,35.749
			c8.8,1.65,103.4,5.5,177.651,5.5c79.751,0,174.901-3.85,183.7-5.499c2.2-6.6,5.5-23.649,7.7-34.1l13.75-2.2
			c-3.3,12.65-15.95,125.4-17.6,141.9l-12.65-3.3c1.1-22,1.65-44.55,1.1-56.65c-13.75-11-90.2-23.1-143.551-23.1
			c-1.649,14.85-2.75,95.15-2.75,134.75v24.75c0,48.4,1.101,141.352,2.75,185.352c10.45,1.65,60.501,6.6,70.951,7.7l2.2,11.55
			c-13.2-1.1-77.551-2.2-107.801-2.2c-24.75,0-90.751,1.101-106.701,2.2l2.75-11.55c12.65-1.101,57.2-6.05,70.4-7.7
			c1.65-42.9,2.75-137.501,2.75-185.352V423.516z"/>
		<path id="XMLID_156_" style="fill:#E30613;" d="M4534.856,597.868c-40.15-41.25-52.801-81.4-52.801-133.101
			c0-108.901,89.65-207.901,241.451-207.901c58.301,0,104.501,9.35,152.352,44.55c43.45,31.9,66.55,85.251,66.55,136.401
			c0,134.75-102.301,221.65-237.602,221.65C4649.257,659.467,4586.007,650.118,4534.856,597.868z M4875.308,477.966
			c0-116.601-80.85-200.2-172.15-200.2c-75.351,0-157.851,50.6-157.851,163.9c0,98.45,79.2,195.251,186.45,195.251
			C4810.407,636.917,4875.308,565.967,4875.308,477.966z"/>
		<path id="XMLID_159_" style="fill:#E30613;" d="M4989.153,265.665c30.8-1.1,82.501-1.65,125.4-3.85
			c12.101,18.7,122.651,157.301,132.001,167.2c14.3,15.4,101.751,121.551,119.351,136.401c0-61.051-0.55-254.102-11.55-282.702
			c-11-2.199-40.15-6.6-55.551-7.7l-2.749-11.551c10.45,1.101,69.851,2.2,81.951,2.2c12.1,0,57.75-1.1,69.299-2.199l-2.2,11.55
			c-7.149,1.101-26.949,5.501-41.8,7.7c-6.6,21.45-9.35,99.001-10.45,116.601c-1.649,25.851-6.05,256.852-9.35,278.852
			c-16.5-15.399-168.852-193.051-181.501-207.351c-7.7-8.25-112.201-135.851-130.351-156.751c-1.65,11,4.949,299.752,12.1,319.552
			c8.25,2.75,49.5,6.6,59.95,7.7l1.65,11.55c-9.899-1.1-67.101-2.2-81.4-2.2c-15.95,0-58.851,1.101-74.801,2.2l1.65-11.55
			c15.399-2.2,33-3.851,45.65-7.7c9.35-23.101,15.399-331.652,15.399-349.802c-12.649-2.75-39.6-5.5-60.5-6.601L4989.153,265.665z"
			/>
		<path id="XMLID_161_" style="fill:#E30613;" d="M5556.198,436.716c0-49.5-1.649-136.95-3.85-154.001
			c-10.45-2.199-44.001-6.05-57.2-7.7l-2.2-11.55c13.2,0.55,31.35,1.101,49.5,1.65c18.15,0,36.3,0.55,48.4,0.55
			c17.6,0,146.851,0,161.701-3.85c1.649-6.601,3.3-15.95,4.399-25.851l12.65-2.2c-2.75,11.551-9.9,96.801-11,113.851l-12.101-3.85
			c0-3.851,0.551-28.601,0-39.601c-9.899-15.95-94.601-23.1-123.75-23.1c-1.65,7.7-3.851,113.851-3.851,146.301v11
			c47.301,0,100.65-3.851,113.851-8.8c2.75-8.25,4.4-15.95,5.5-23.65l11.551-1.101c-1.65,9.9-11.551,85.251-14.301,102.851
			l-10.45-4.399c0.551-11.55,1.101-25.851,1.101-36.851c-17.05-8.8-59.95-12.1-107.251-12.1v11c0,33.55,2.2,153.45,3.851,169.4
			c55,0,106.7-4.399,132-18.7c6.051-19.25,8.801-36.3,12.101-48.399l12.65-3.301c-3.851,15.95-15.95,99.551-18.15,127.051
			l-11.55-2.2c0-14.85,0-24.75-0.551-33.55c-15.95-2.75-138.051-4.95-172.7-4.95c-18.7,0-62.15,1.101-83.601,2.2l2.75-11.55
			c8.8-0.55,41.8-3.851,56.65-7.7c2.2-9.9,3.85-111.101,3.85-171.601V436.716z"/>
	</g>
	<g id="XMLID_68_">
		<path id="XMLID_135_" style="fill:#FFFFFF;" d="M486.417,425.716c0-51.7-1.1-128.15-2.75-143.001
			c-13.2-2.199-45.65-6.6-58.85-7.699l-1.65-11.552c11,1.101,74.25,2.2,96.801,2.2c20.35,0,79.75-1.1,90.2-2.199l-2.2,11.551
			c-6.6,1.1-43.45,5.5-56.1,7.699c-2.2,17.601-2.75,102.851-2.75,147.951v17.05c35.75-31.35,160.601-138.051,176.551-165.001
			c-12.65-3.3-28.6-6.05-40.7-7.699l-2.199-11.552c23.1,1.101,62.15,2.2,83.601,2.2c15.95,0,41.25-1.1,59.949-2.199l-3.3,11.551
			c-8.25,1.1-22,2.75-36.3,6.6c-23.65,12.65-125.951,98.45-149.051,119.351c21.45,34.101,179.851,233.201,208.451,259.602
			l-18.7,6.05c-42.9-16.5-228.251-206.251-243.651-222.751c-10.45,7.7-27.5,22-34.65,28.6v13.2c0,47.851,0.55,124.851,2.75,145.201
			c14.3,6.05,54.45,9.35,62.7,10.45l1.101,11.55c-10.45-1.1-68.75-2.2-98.451-2.2c-25.851,0-78.101,1.101-94.051,2.2l2.2-11.55
			c13.2-1.101,45.1-4.4,58.3-7.7c1.65-24.2,2.75-97.9,2.75-176.551V425.716z"/>
		<path id="XMLID_137_" style="fill:#FFFFFF;" d="M926.41,436.716c0-49.5-1.65-136.95-3.85-154.001c-10.45-2.199-44-6.05-57.2-7.699
			l-2.2-11.551c13.2,0.55,31.35,1.101,49.5,1.65c18.15,0,36.3,0.55,48.4,0.55c17.6,0,146.851,0,161.701-3.85
			c1.65-6.601,3.3-15.95,4.4-25.851l12.65-2.2c-2.75,11.551-9.9,96.801-11,113.851l-12.1-3.85c0-3.85,0.55-28.601,0-39.601
			c-9.9-15.95-94.601-23.1-123.751-23.1c-1.65,7.7-3.85,113.851-3.85,146.301v11c47.3,0,100.65-3.851,113.851-8.8
			c2.75-8.25,4.4-15.95,5.5-23.65l11.55-1.101c-1.65,9.9-11.55,85.251-14.3,102.851l-10.45-4.399c0.55-11.55,1.1-25.851,1.1-36.851
			c-17.05-8.8-59.951-12.1-107.25-12.1v11c0,33.55,2.2,153.45,3.85,169.4c55,0,106.701-4.399,132.001-18.7
			c6.05-19.25,8.8-36.3,12.1-48.399l12.65-3.301c-3.85,15.95-15.95,99.551-18.15,127.051l-11.55-2.2c0-14.85,0-24.75-0.55-33.55
			c-15.95-2.75-138.051-4.95-172.701-4.95c-18.7,0-62.15,1.101-83.6,2.2l2.75-11.55c8.8-0.55,41.8-3.851,56.65-7.7
			c2.2-9.9,3.85-111.101,3.85-171.601V436.716z"/>
		<path id="XMLID_139_" style="fill:#FFFFFF;" d="M1276.207,418.567c0-19.801-0.55-125.401-2.75-135.852
			c-9.35-2.199-46.75-5.5-58.851-6.6l-1.65-11.55l118.801-0.551c52.25,0,117.701,0.551,155.101,15.4
			c29.15,11.55,47.3,32.45,47.3,62.7c0,34.65-35.2,80.301-77.55,103.951c6.05,13.75,94.601,157.851,151.801,218.351l-24.2,3.851
			c-38.5-17.601-184.801-186.451-193.601-198.001c-20.9,1.649-43.45,3.3-52.8,3.3v14.3c0,35.75,1.1,120.451,2.75,145.751
			c9.35,2.75,45.65,6.6,57.75,7.7l2.201,11.55c-13.75-1.1-69.301-2.2-94.601-2.2c-22.55,0-80.3,1.101-92.951,2.2l2.2-11.55
			c7.7-0.55,42.9-3.851,58.3-7.7c2.2-15.95,2.75-123.751,2.75-181.501V418.567z M1337.807,456.517c19.8,0,43.45-1.65,67.101-10.45
			c23.65-8.801,62.7-34.101,62.7-88.551c0-35.2-31.9-78.101-127.051-78.101c-1.65,22.55-2.75,121.001-2.75,160.051V456.517z"/>
		<path id="XMLID_142_" style="fill:#FFFFFF;" d="M1633.149,706.218c1.1-7.7,8.8-68.751,8.8-90.201c0-14.3,3.3-73.7,1.65-86.9
			l12.65,3.301c-0.55,7.149,2.2,38.5,3.85,48.399c14.85,35.2,47.3,59.951,85.25,59.951c43.451,0,78.101-28.601,78.101-69.301
			c0-44.55-34.65-66.551-70.4-89.65c-53.9-35.2-96.8-66-96.8-128.15c0-42.9,31.9-96.801,113.3-96.801c32.45,0,61.05,6.6,74.25,9.899
			c3.85-13.199,6.6-29.699,9.9-44.55l12.65-1.65c-7.7,54.451-13.2,105.601-13.2,150.701l-12.65-5.5c0-18.7-1.1-31.9-2.2-41.8
			c-6.05-19.801-34.65-49.501-73.15-49.501c-47.3,0-67.1,30.251-67.1,55.001c0,35.75,37.4,55,79.2,81.4
			c45.65,28.6,91.851,59.4,91.851,128.7c0,76.45-60.5,119.901-135.301,119.901c-26.4,0-60.5-5.501-75.9-13.751
			c-2.75,10.45-8.25,36.851-12.1,57.201L1633.149,706.218z"/>
		<path id="XMLID_144_" style="fill:#FFFFFF;" d="M2297.544,385.566c0-10.449-1.65-36.3-3.3-45.649
			c-10.45-24.2-61.601-63.801-132.551-63.801c-100.101,0-163.351,72.601-163.351,158.4c0,107.251,88.551,198.002,204.601,198.002
			c41.8,0,91.301-6.601,130.351-29.7l-7.7,23.649c-12.65,10.45-68.201,33.001-154.551,33.001c-20.35,0-80.301-2.2-124.851-24.2
			c-71.5-35.2-113.851-97.901-113.851-168.302c0-75.9,38.5-132,86.901-164.45c57.2-38.501,108.351-45.65,163.901-45.65
			c48.4,0,99.55,9.899,114.951,14.3c3.3-7.15,9.9-42.351,11.55-48.95l12.65-2.75c-8.25,60.5-11.55,117.7-12.1,169.951
			L2297.544,385.566z"/>
		<path id="XMLID_146_" style="fill:#FFFFFF;" d="M2436.687,421.867c0-17.601-0.55-121.001-2.75-139.151
			c-9.9-2.199-44-6.6-57.75-7.699l-2.75-11.552c9.35,1.101,61.6,2.2,96.801,2.2c34.1,0,80.851-1.1,89.65-2.199l-2.75,11.551
			c-15.4,1.1-44.55,5.5-53.35,7.699c-2.2,14.851-4.4,79.751-4.4,127.051v26.95c13.75,0,206.251,2.2,228.251-1.649v-25.301
			c0-42.9,0-113.301-3.3-127.051c-9.35-2.199-38.5-6.6-54.451-7.699l-2.749-11.552c9.35,1.101,60.5,2.2,94.601,2.2
			c35.75,0,81.951-1.1,91.85-2.199l-3.3,11.551c-11,1.1-40.15,5.5-56.101,7.699c-2.75,11-3.85,124.301-3.85,139.151v38.5
			c0,63.801,1.1,154.551,4.95,173.251c11,2.2,44.55,7.15,55.55,7.7l2.751,11.55c-10.45-1.1-66.551-2.2-92.401-2.2
			c-23.65,0-75.351,1.101-94.052,2.2l2.75-11.55c8.25-0.55,44.55-5.5,54.451-7.7c3.3-18.7,3.3-88.551,3.3-146.851v-31.9
			c-25.85,0.55-220.551,11-228.251,12.65v19.25c0,56.1,2.2,126.5,4.4,146.851c14.85,3.3,42.35,7.15,53.35,7.7l2.75,11.55
			c-11.55-1.1-66-2.2-89.65-2.2c-28.601,0-80.301,1.101-96.801,2.2l3.3-11.55c12.65-0.55,46.75-5.5,57.2-7.7
			c2.2-25.851,2.75-118.251,2.75-160.051V421.867z"/>
		<path id="XMLID_148_" style="fill:#FFFFFF;" d="M2969.633,436.716c0-49.5-1.65-136.95-3.85-154.001
			c-10.45-2.199-44-6.05-57.2-7.699l-2.2-11.551c13.2,0.55,31.35,1.101,49.5,1.65c18.15,0,36.3,0.55,48.4,0.55
			c17.6,0,146.851,0,161.701-3.85c1.649-6.601,3.3-15.95,4.399-25.851l12.65-2.2c-2.75,11.551-9.9,96.801-11,113.851l-12.101-3.85
			c0-3.85,0.551-28.601,0-39.601c-9.899-15.95-94.6-23.1-123.75-23.1c-1.65,7.7-3.85,113.851-3.85,146.301v11
			c47.3,0,100.65-3.851,113.85-8.8c2.75-8.25,4.4-15.95,5.5-23.65l11.551-1.101c-1.65,9.9-11.551,85.251-14.301,102.851
			l-10.45-4.399c0.55-11.55,1.101-25.851,1.101-36.851c-17.051-8.8-59.951-12.1-107.25-12.1v11c0,33.55,2.2,153.45,3.85,169.4
			c55,0,106.701-4.399,132-18.7c6.051-19.25,8.801-36.3,12.101-48.399l12.65-3.301c-3.851,15.95-15.95,99.551-18.15,127.051
			l-11.55-2.2c0-14.85,0-24.75-0.551-33.55c-15.95-2.75-138.05-4.95-172.701-4.95c-18.7,0-62.15,1.101-83.6,2.2l2.75-11.55
			c8.8-0.55,41.8-3.851,56.65-7.7c2.2-9.9,3.85-111.101,3.85-171.601V436.716z"/>
		<path id="XMLID_150_" style="fill:#FFFFFF;" d="M3252.329,265.665c30.8-1.1,82.501-1.65,125.4-3.85
			c12.101,18.7,122.651,157.301,132.001,167.2c14.3,15.4,101.751,121.551,119.351,136.401c0-61.051-0.55-254.102-11.55-282.702
			c-11-2.199-40.15-6.6-55.551-7.699l-2.749-11.552c10.45,1.101,69.851,2.2,81.951,2.2c12.1,0,57.75-1.1,69.299-2.199l-2.2,11.551
			c-7.149,1.1-26.949,5.5-41.8,7.699c-6.6,21.45-9.35,99.001-10.45,116.601c-1.649,25.851-6.05,256.852-9.35,278.852
			c-16.5-15.399-168.852-193.051-181.501-207.351c-7.7-8.25-112.201-135.851-130.351-156.751c-1.65,11,4.949,299.752,12.1,319.552
			c8.25,2.75,49.5,6.6,59.95,7.7l1.65,11.55c-9.899-1.1-67.101-2.2-81.4-2.2c-15.95,0-58.851,1.101-74.801,2.2l1.65-11.55
			c15.399-2.2,33-3.851,45.65-7.7c9.35-23.101,15.399-331.652,15.399-349.802c-12.649-2.75-39.6-5.5-60.5-6.601L3252.329,265.665z"
			/>
	</g>
</g>
<g id="XMLID_54_" style="display:none;">
	<path id="XMLID_112_" style="display:inline;fill:#FFFFFF;" d="M4643.709,1691.189c0,5.951,0.07,22.123,0.35,24.153
		c1.681,0.279,6.721,0.77,8.892,0.979l0.35,1.471c-2.31-0.141-10.15-0.28-13.371-0.28c-3.5,0-10.151,0.14-12.111,0.28l0.28-1.471
		c1.05-0.14,5.601-0.63,7.421-0.979c0.279-3.081,0.35-17.992,0.35-24.503v-2.8c0-2.24-0.07-14.982-0.35-17.362
		c-1.33-0.49-5.811-0.84-7.491-0.98l-0.21-1.47c2.101,0,12.321-0.07,15.542-0.07c7.631,0,13.441,0.63,16.871,2.03
		c6.23,2.591,6.861,6.861,6.861,8.611c0,4.761-2.03,8.331-4.831,11.131c-4.62,4.621-12.181,6.511-14.701,6.861l0.21-1.751
		c2.521-0.63,10.991-3.15,10.991-13.721c0-4.271-2.101-7.771-5.671-9.521c-2.311-1.12-5.95-1.54-9.031-1.54
		c-0.279,2.03-0.35,11.971-0.35,17.992V1691.189z"/>
	<path id="XMLID_114_" style="display:inline;fill:#FFFFFF;" d="M4679.758,1710.792c-5.11-5.251-6.721-10.361-6.721-16.941
		c0-13.862,11.411-26.463,30.733-26.463c7.421,0,13.301,1.189,19.392,5.67c5.53,4.061,8.471,10.852,8.471,17.362
		c0,17.151-13.021,28.213-30.243,28.213C4694.319,1718.632,4686.269,1717.442,4679.758,1710.792z M4723.092,1695.53
		c0-14.842-10.291-25.482-21.912-25.482c-9.591,0-20.092,6.44-20.092,20.862c0,12.531,10.081,24.853,23.732,24.853
		C4714.831,1715.762,4723.092,1706.731,4723.092,1695.53z"/>
	<path id="XMLID_117_" style="display:inline;fill:#FFFFFF;" d="M4733.585,1668.227c1.961,0.14,4.901,0.28,10.292,0.28
		c5.95,0,9.66-0.141,11.271-0.28l-0.35,1.47c-0.98,0.211-4.69,0.7-6.371,0.98c0.7,3.08,8.471,32.554,9.731,35.773h0.14
		c0.84-2.38,10.991-27.442,12.531-33.953c-2.03-0.42-5.671-0.91-6.86-1.12l-0.351-1.471c2.661,0.141,5.881,0.28,9.941,0.28
		c4.341,0,8.331-0.14,10.011-0.279l-0.21,1.47c-2.1,0.35-4.271,0.56-5.601,1.12c1.54,3.99,10.432,28.493,12.741,34.373h0.141
		c0.91-3.149,9.241-29.402,9.661-36.193c-2.03-0.42-4.271-0.63-6.581-0.98l-0.35-1.47c1.47,0.14,4.97,0.28,9.171,0.28
		c4.061,0,6.931-0.141,9.101-0.28l-0.21,1.47c-1.54,0.211-3.29,0.561-4.48,0.98c-2.03,2.17-17.362,48.095-18.062,50.476
		c-1.891-4.061-14.702-36.054-16.732-41.864c-2.38,6.021-12.951,33.184-16.731,41.864c-2.45-5.881-12.531-42.145-16.312-50.476
		c-1.681-0.42-3.15-0.63-5.251-0.98L4733.585,1668.227z"/>
	<path id="XMLID_119_" style="display:inline;fill:#FFFFFF;" d="M4820.666,1690.28c0-6.301-0.21-17.433-0.49-19.603
		c-1.33-0.28-5.601-0.77-7.28-0.98l-0.28-1.47c1.68,0.07,3.99,0.14,6.301,0.21c2.311,0,4.62,0.07,6.16,0.07
		c2.24,0,18.692,0,20.582-0.49c0.211-0.84,0.421-2.03,0.561-3.29l1.61-0.28c-0.351,1.47-1.261,12.321-1.4,14.491l-1.54-0.49
		c0-0.489,0.07-3.64,0-5.04c-1.26-2.03-12.041-2.94-15.752-2.94c-0.21,0.98-0.49,14.491-0.49,18.622v1.4
		c6.021,0,12.812-0.49,14.492-1.12c0.35-1.051,0.56-2.03,0.7-3.011l1.47-0.14c-0.21,1.26-1.47,10.851-1.82,13.091l-1.33-0.56
		c0.07-1.471,0.141-3.291,0.141-4.69c-2.171-1.12-7.631-1.54-13.652-1.54v1.399c0,4.271,0.28,19.532,0.49,21.563
		c7.001,0,13.582-0.56,16.802-2.38c0.771-2.45,1.12-4.621,1.54-6.161l1.61-0.42c-0.49,2.03-2.03,12.672-2.31,16.172l-1.471-0.28
		c0-1.89,0-3.15-0.07-4.271c-2.03-0.35-17.571-0.63-21.982-0.63c-2.38,0-7.91,0.14-10.641,0.28l0.35-1.471
		c1.12-0.069,5.321-0.49,7.211-0.979c0.28-1.261,0.49-14.142,0.49-21.843V1690.28z"/>
	<path id="XMLID_121_" style="display:inline;fill:#FFFFFF;" d="M4865.186,1687.969c0-2.521-0.069-15.962-0.35-17.292
		c-1.19-0.28-5.951-0.7-7.491-0.84l-0.21-1.471l15.122-0.069c6.65,0,14.981,0.069,19.742,1.96c3.71,1.47,6.021,4.131,6.021,7.98
		c0,4.411-4.48,10.222-9.871,13.231c0.77,1.75,12.041,20.093,19.322,27.793l-3.081,0.49c-4.9-2.24-23.522-23.732-24.643-25.202
		c-2.66,0.21-5.53,0.42-6.721,0.42v1.82c0,4.55,0.141,15.331,0.351,18.552c1.189,0.35,5.811,0.84,7.351,0.979l0.28,1.471
		c-1.75-0.141-8.821-0.28-12.041-0.28c-2.871,0-10.222,0.14-11.832,0.28l0.28-1.471c0.98-0.069,5.461-0.49,7.421-0.979
		c0.28-2.03,0.35-15.752,0.35-23.103V1687.969z M4873.026,1692.799c2.521,0,5.531-0.21,8.541-1.33
		c3.011-1.12,7.981-4.34,7.981-11.271c0-4.48-4.061-9.941-16.172-9.941c-0.21,2.87-0.351,15.401-0.351,20.372V1692.799z"/>
	<path id="XMLID_124_" style="display:inline;fill:#FFFFFF;" d="M4917.615,1690.28c0-6.301-0.21-17.433-0.49-19.603
		c-1.33-0.28-5.601-0.77-7.28-0.98l-0.28-1.47c1.68,0.07,3.99,0.14,6.301,0.21c2.311,0,4.62,0.07,6.16,0.07
		c2.24,0,18.692,0,20.582-0.49c0.211-0.84,0.421-2.03,0.561-3.29l1.61-0.28c-0.351,1.47-1.261,12.321-1.4,14.491l-1.54-0.49
		c0-0.489,0.07-3.64,0-5.04c-1.26-2.03-12.041-2.94-15.752-2.94c-0.21,0.98-0.49,14.491-0.49,18.622v1.4
		c6.021,0,12.812-0.49,14.492-1.12c0.35-1.051,0.56-2.03,0.7-3.011l1.47-0.14c-0.21,1.26-1.47,10.851-1.82,13.091l-1.33-0.56
		c0.07-1.471,0.141-3.291,0.141-4.69c-2.171-1.12-7.631-1.54-13.652-1.54v1.399c0,4.271,0.28,19.532,0.49,21.563
		c7.001,0,13.582-0.56,16.802-2.38c0.771-2.45,1.12-4.621,1.54-6.161l1.61-0.42c-0.49,2.03-2.03,12.672-2.31,16.172l-1.471-0.28
		c0-1.89,0-3.15-0.07-4.271c-2.03-0.35-17.571-0.63-21.982-0.63c-2.38,0-7.91,0.14-10.641,0.28l0.35-1.471
		c1.12-0.069,5.321-0.49,7.211-0.979c0.28-1.261,0.49-14.142,0.49-21.843V1690.28z"/>
	<path id="XMLID_126_" style="display:inline;fill:#FFFFFF;" d="M4962.205,1688.04c0-3.15-0.14-15.962-0.49-17.362
		c-1.82-0.35-5.74-0.84-7.421-0.98l-0.14-1.47c1.05,0.14,8.611,0.28,11.551,0.28c2.451,0,10.781-0.28,16.172-0.28
		c8.191,0,15.122,0.98,19.742,3.221c8.191,3.92,11.481,10.57,11.481,16.941c0,14.771-11.621,29.263-38.504,29.263
		c-3.921,0-18.763,0.07-20.442,0.141l0.28-1.471c1.33-0.069,5.601-0.49,7.28-0.979c0.351-1.19,0.49-13.651,0.49-21.772V1688.04z
		 M4970.186,1694.2c0,3.78,0.211,16.941,0.49,19.462c3.08,1.19,5.811,1.261,7.631,1.261c13.371,0,26.183-7.841,26.183-22.753
		c0-5.95-1.82-11.831-7.631-16.172c-5.11-3.78-13.511-5.181-20.021-5.181c-1.61,0-4.69,0.141-6.161,0.421
		c-0.21,1.05-0.49,17.151-0.49,20.231V1694.2z"/>
	<path id="XMLID_129_" style="display:inline;fill:#FFFFFF;" d="M5045.504,1689.509c0-5.041-0.21-15.962-0.49-18.832
		c-2.38-0.42-5.181-0.56-7.211-0.7l-0.35-1.47c2.311-0.07,15.682-0.561,20.092-0.561c13.651,0,15.752,5.811,15.752,9.102
		c0,2.03-0.07,3.78-1.82,6.58c-2.59,4.061-6.721,6.301-9.031,7.281v0.21c6.932,1.12,14.352,6.091,14.352,13.511
		c0,8.052-6.58,13.441-16.312,13.441c-0.979,0-3.36-0.14-5.881-0.279c-2.45-0.141-5.04-0.28-6.511-0.28
		c-1.54,0-8.61,0.14-10.641,0.28l0.28-1.471c1.61-0.14,5.811-0.56,7.28-0.979c0.49-4.831,0.49-15.262,0.49-21.423V1689.509z
		 M5053.064,1691.12c2.171,0,5.741-0.42,8.401-2.381c2.59-1.89,4.061-5.25,4.061-8.82c0-6.021-3.711-10.081-9.451-10.081
		c-1.12,0-2.17,0.14-2.801,0.42c-0.14,0.7-0.21,10.641-0.21,16.941V1691.12z M5053.064,1697c0,6.021,0.49,16.451,0.841,17.361
		c1.609,1.12,4.2,1.47,5.601,1.47c6.65,0,9.45-3.71,9.45-8.54c0-4.48-2.87-9.871-7.631-12.392c-2.8-1.471-6.58-1.891-8.261-1.681
		V1697z"/>
	<path id="XMLID_133_" style="display:inline;fill:#FFFFFF;" d="M5099.125,1699.871c0-0.98,0-2.801-0.21-4.621
		c-0.561-1.82-13.862-21.562-17.082-24.572c-0.91-0.42-3.501-0.7-4.9-0.98l-0.28-1.47c1.19,0.14,5.811,0.28,12.182,0.28
		c3.99,0,8.681-0.141,9.66-0.28l-0.35,1.47c-1.26,0.28-4.41,0.631-6.021,0.98c4.13,7.281,11.271,17.502,13.441,21.212
		c1.12-2.03,11.901-18.342,12.111-21.212c-1.471-0.35-4.551-0.84-5.461-0.98l-0.21-1.47c1.05,0.14,4.971,0.28,8.821,0.28
		c3.22,0,6.86-0.141,8.471-0.28l-0.21,1.47c-1.05,0.211-3.29,0.561-4.761,0.98c-1.54,0.49-15.962,20.933-16.941,24.013
		c-0.21,1.19-0.28,3.29-0.28,4.971v2.66c0,1.89,0.07,11.271,0.35,13.021c0.841,0.21,5.461,0.77,6.791,0.979l0.141,1.471
		c-1.471-0.141-7.771-0.28-12.532-0.28c-2.52,0-7.63,0.14-9.591,0.28l0.351-1.471c1.33-0.14,4.55-0.56,6.16-0.979
		c0.28-1.051,0.351-8.751,0.351-13.231V1699.871z"/>
</g>
<g id="XMLID_55_" style="display:none;">
	<path id="XMLID_3_" style="display:inline;fill:#FFFFFF;" d="M4635.868,1767.879c0-6.581-0.14-16.312-0.35-18.202
		c-1.681-0.28-5.811-0.84-7.491-0.98l-0.21-1.47c1.4,0.14,9.451,0.28,12.321,0.28c2.59,0,10.151-0.141,11.481-0.28l-0.28,1.47
		c-0.84,0.141-5.53,0.7-7.141,0.98c-0.28,2.24-0.351,13.092-0.351,18.832v2.17c4.551-3.99,20.442-17.571,22.473-21.002
		c-1.61-0.42-3.641-0.77-5.181-0.98l-0.279-1.47c2.939,0.14,7.91,0.28,10.641,0.28c2.03,0,5.251-0.141,7.631-0.28l-0.42,1.47
		c-1.051,0.141-2.801,0.351-4.621,0.841c-3.01,1.61-16.031,12.531-18.972,15.191c2.73,4.341,22.893,29.683,26.533,33.043
		l-2.381,0.771c-5.46-2.101-29.053-26.253-31.013-28.354c-1.33,0.98-3.501,2.801-4.411,3.641v1.681
		c0,6.091,0.07,15.892,0.351,18.481c1.82,0.771,6.931,1.19,7.98,1.33l0.141,1.471c-1.33-0.141-8.751-0.28-12.531-0.28
		c-3.291,0-9.941,0.14-11.972,0.28l0.28-1.471c1.68-0.14,5.74-0.56,7.421-0.979c0.21-3.081,0.35-12.462,0.35-22.473V1767.879z"/>
	<path id="XMLID_70_" style="display:inline;fill:#FFFFFF;" d="M4691.867,1769.28c0-6.301-0.21-17.433-0.49-19.603
		c-1.33-0.28-5.601-0.77-7.28-0.98l-0.28-1.47c1.68,0.07,3.99,0.14,6.301,0.21c2.311,0,4.62,0.07,6.16,0.07
		c2.24,0,18.692,0,20.582-0.49c0.211-0.84,0.421-2.03,0.561-3.29l1.61-0.28c-0.351,1.47-1.261,12.321-1.4,14.491l-1.54-0.49
		c0-0.489,0.07-3.64,0-5.04c-1.26-2.03-12.041-2.94-15.752-2.94c-0.21,0.98-0.49,14.491-0.49,18.622v1.4
		c6.021,0,12.812-0.49,14.492-1.12c0.35-1.051,0.56-2.03,0.7-3.011l1.47-0.14c-0.21,1.26-1.47,10.851-1.82,13.091l-1.33-0.56
		c0.07-1.471,0.141-3.291,0.141-4.69c-2.171-1.12-7.631-1.54-13.652-1.54v1.399c0,4.271,0.28,19.532,0.49,21.563
		c7.001,0,13.582-0.56,16.802-2.38c0.771-2.45,1.12-4.621,1.54-6.161l1.61-0.42c-0.49,2.03-2.03,12.672-2.31,16.172l-1.471-0.28
		c0-1.89,0-3.15-0.07-4.271c-2.03-0.35-17.571-0.63-21.982-0.63c-2.38,0-7.91,0.14-10.641,0.28l0.35-1.471
		c1.12-0.069,5.321-0.49,7.211-0.979c0.28-1.261,0.49-14.142,0.49-21.843V1769.28z"/>
	<path id="XMLID_72_" style="display:inline;fill:#FFFFFF;" d="M4736.387,1766.969c0-2.521-0.069-15.962-0.35-17.292
		c-1.19-0.28-5.951-0.7-7.491-0.84l-0.21-1.471l15.122-0.069c6.65,0,14.981,0.069,19.742,1.96c3.71,1.47,6.021,4.131,6.021,7.98
		c0,4.411-4.48,10.222-9.871,13.231c0.77,1.75,12.041,20.093,19.322,27.793l-3.081,0.49c-4.9-2.24-23.522-23.732-24.643-25.202
		c-2.66,0.21-5.53,0.42-6.721,0.42v1.82c0,4.55,0.141,15.331,0.351,18.552c1.189,0.35,5.811,0.84,7.351,0.979l0.28,1.471
		c-1.75-0.141-8.821-0.28-12.041-0.28c-2.871,0-10.222,0.14-11.832,0.28l0.28-1.471c0.98-0.069,5.461-0.49,7.421-0.979
		c0.28-2.03,0.35-15.752,0.35-23.103V1766.969z M4744.228,1771.799c2.521,0,5.531-0.21,8.541-1.33
		c3.011-1.12,7.981-4.34,7.981-11.271c0-4.48-4.061-9.941-16.172-9.941c-0.21,2.87-0.351,15.401-0.351,20.372V1771.799z"/>
	<path id="XMLID_75_" style="display:inline;fill:#FFFFFF;" d="M4780.766,1803.583c0.141-0.979,1.12-8.751,1.12-11.48
		c0-1.82,0.42-9.381,0.21-11.062l1.61,0.42c-0.069,0.91,0.28,4.9,0.49,6.161c1.891,4.48,6.021,7.631,10.852,7.631
		c5.53,0,9.94-3.641,9.94-8.821c0-5.671-4.41-8.471-8.961-11.411c-6.86-4.48-12.321-8.401-12.321-16.312
		c0-5.461,4.061-12.321,14.422-12.321c4.13,0,7.771,0.84,9.451,1.26c0.489-1.68,0.84-3.78,1.26-5.671l1.61-0.21
		c-0.98,6.931-1.681,13.441-1.681,19.183l-1.61-0.7c0-2.38-0.14-4.061-0.279-5.32c-0.771-2.521-4.411-6.301-9.312-6.301
		c-6.021,0-8.541,3.851-8.541,7.001c0,4.55,4.761,7,10.081,10.36c5.811,3.641,11.691,7.562,11.691,16.382
		c0,9.731-7.7,15.262-17.222,15.262c-3.36,0-7.7-0.7-9.661-1.75c-0.35,1.33-1.05,4.69-1.54,7.28L4780.766,1803.583z"/>
	<path id="XMLID_77_" style="display:inline;fill:#FFFFFF;" d="M4865.329,1762.769c0-1.33-0.21-4.621-0.42-5.811
		c-1.33-3.081-7.841-8.121-16.872-8.121c-12.741,0-20.792,9.241-20.792,20.162c0,13.651,11.271,25.202,26.043,25.202
		c5.32,0,11.621-0.84,16.592-3.78l-0.98,3.011c-1.609,1.33-8.681,4.2-19.672,4.2c-2.59,0-10.221-0.28-15.892-3.08
		c-9.101-4.48-14.491-12.462-14.491-21.423c0-9.661,4.9-16.802,11.061-20.932c7.281-4.9,13.792-5.811,20.862-5.811
		c6.161,0,12.672,1.26,14.632,1.82c0.42-0.91,1.26-5.391,1.47-6.231l1.61-0.35c-1.05,7.701-1.47,14.981-1.54,21.632
		L4865.329,1762.769z"/>
	<path id="XMLID_79_" style="display:inline;fill:#FFFFFF;" d="M4883.034,1767.389c0-2.24-0.07-15.401-0.35-17.712
		c-1.261-0.28-5.601-0.84-7.352-0.98l-0.35-1.47c1.19,0.14,7.841,0.28,12.321,0.28c4.341,0,10.291-0.141,11.411-0.28l-0.35,1.47
		c-1.961,0.141-5.671,0.7-6.791,0.98c-0.28,1.891-0.561,10.151-0.561,16.172v3.431c1.751,0,26.253,0.279,29.054-0.21v-3.221
		c0-5.461,0-14.422-0.42-16.172c-1.19-0.28-4.9-0.84-6.931-0.98l-0.351-1.47c1.19,0.14,7.701,0.28,12.041,0.28
		c4.551,0,10.432-0.141,11.691-0.28l-0.42,1.47c-1.4,0.141-5.11,0.7-7.141,0.98c-0.35,1.4-0.49,15.821-0.49,17.712v4.9
		c0,8.121,0.141,19.672,0.63,22.053c1.4,0.279,5.671,0.91,7.071,0.979l0.35,1.471c-1.33-0.141-8.471-0.28-11.761-0.28
		c-3.011,0-9.591,0.14-11.972,0.28l0.351-1.471c1.05-0.069,5.67-0.7,6.931-0.979c0.42-2.381,0.42-11.271,0.42-18.692v-4.061
		c-3.291,0.07-28.073,1.4-29.054,1.61v2.45c0,7.141,0.28,16.102,0.561,18.692c1.89,0.42,5.391,0.91,6.791,0.979l0.35,1.471
		c-1.47-0.141-8.4-0.28-11.411-0.28c-3.641,0-10.221,0.14-12.321,0.28l0.42-1.471c1.61-0.069,5.951-0.7,7.281-0.979
		c0.279-3.291,0.35-15.052,0.35-20.372V1767.389z"/>
	<path id="XMLID_81_" style="display:inline;fill:#FFFFFF;" d="M4950.863,1769.28c0-6.301-0.21-17.433-0.49-19.603
		c-1.33-0.28-5.601-0.77-7.28-0.98l-0.28-1.47c1.68,0.07,3.99,0.14,6.301,0.21c2.311,0,4.62,0.07,6.16,0.07
		c2.24,0,18.692,0,20.582-0.49c0.211-0.84,0.421-2.03,0.561-3.29l1.61-0.28c-0.351,1.47-1.261,12.321-1.4,14.491l-1.54-0.49
		c0-0.489,0.07-3.64,0-5.04c-1.26-2.03-12.041-2.94-15.752-2.94c-0.21,0.98-0.49,14.491-0.49,18.622v1.4
		c6.021,0,12.812-0.49,14.492-1.12c0.35-1.051,0.56-2.03,0.7-3.011l1.47-0.14c-0.21,1.26-1.47,10.851-1.82,13.091l-1.33-0.56
		c0.07-1.471,0.141-3.291,0.141-4.69c-2.171-1.12-7.631-1.54-13.652-1.54v1.399c0,4.271,0.28,19.532,0.49,21.563
		c7.001,0,13.582-0.56,16.802-2.38c0.771-2.45,1.12-4.621,1.54-6.161l1.61-0.42c-0.49,2.03-2.03,12.672-2.31,16.172l-1.471-0.28
		c0-1.89,0-3.15-0.07-4.271c-2.03-0.35-17.571-0.63-21.982-0.63c-2.38,0-7.91,0.14-10.641,0.28l0.35-1.471
		c1.12-0.069,5.321-0.49,7.211-0.979c0.28-1.261,0.49-14.142,0.49-21.843V1769.28z"/>
	<path id="XMLID_83_" style="display:inline;fill:#FFFFFF;" d="M4986.842,1747.507c3.921-0.141,10.502-0.21,15.962-0.49
		c1.54,2.38,15.612,20.022,16.802,21.282c1.82,1.96,12.951,15.472,15.191,17.361c0-7.771-0.069-32.343-1.47-35.983
		c-1.4-0.28-5.11-0.84-7.07-0.98l-0.351-1.47c1.33,0.14,8.891,0.28,10.432,0.28c1.54,0,7.351-0.141,8.82-0.28l-0.28,1.47
		c-0.909,0.141-3.43,0.7-5.32,0.98c-0.84,2.73-1.19,12.602-1.33,14.842c-0.21,3.29-0.77,32.693-1.19,35.493
		c-2.1-1.96-21.492-24.572-23.102-26.393c-0.98-1.05-14.282-17.292-16.592-19.952c-0.21,1.4,0.63,38.154,1.54,40.675
		c1.05,0.35,6.301,0.84,7.631,0.979l0.21,1.471c-1.261-0.141-8.541-0.28-10.361-0.28c-2.03,0-7.491,0.14-9.521,0.28l0.211-1.471
		c1.96-0.279,4.2-0.49,5.811-0.979c1.189-2.94,1.96-42.215,1.96-44.525c-1.61-0.35-5.041-0.699-7.701-0.84L4986.842,1747.507z"/>
	<path id="XMLID_85_" style="display:inline;fill:#FFFFFF;" d="M5052.012,1803.583c0.141-0.979,1.12-8.751,1.12-11.48
		c0-1.82,0.42-9.381,0.21-11.062l1.61,0.42c-0.069,0.91,0.28,4.9,0.49,6.161c1.891,4.48,6.021,7.631,10.852,7.631
		c5.53,0,9.94-3.641,9.94-8.821c0-5.671-4.41-8.471-8.961-11.411c-6.86-4.48-12.321-8.401-12.321-16.312
		c0-5.461,4.061-12.321,14.422-12.321c4.13,0,7.771,0.84,9.451,1.26c0.489-1.68,0.84-3.78,1.26-5.671l1.61-0.21
		c-0.98,6.931-1.681,13.441-1.681,19.183l-1.61-0.7c0-2.38-0.14-4.061-0.279-5.32c-0.771-2.521-4.411-6.301-9.312-6.301
		c-6.021,0-8.541,3.851-8.541,7.001c0,4.55,4.761,7,10.081,10.36c5.811,3.641,11.691,7.562,11.691,16.382
		c0,9.731-7.7,15.262-17.222,15.262c-3.36,0-7.7-0.7-9.661-1.75c-0.35,1.33-1.05,4.69-1.54,7.28L5052.012,1803.583z"/>
	<path id="XMLID_87_" style="display:inline;fill:#FFFFFF;" d="M5108.362,1767.599c0-5.181-0.14-15.542-0.35-17.151
		c-11.201,0-16.242,1.75-18.132,2.94c-0.561,1.54-0.98,4.27-1.4,6.58l-1.61,0.42c0.28-3.36,1.12-12.111,1.05-17.642l1.61,0.28
		c0.07,0.91,0.21,3.08,0.42,4.55c1.12,0.21,13.162,0.7,22.613,0.7c10.15,0,22.262-0.49,23.382-0.7c0.28-0.84,0.7-3.01,0.98-4.34
		l1.75-0.28c-0.42,1.61-2.03,15.962-2.24,18.062l-1.61-0.42c0.14-2.8,0.21-5.67,0.14-7.21c-1.75-1.4-11.48-2.94-18.271-2.94
		c-0.21,1.89-0.35,12.111-0.35,17.151v3.15c0,6.16,0.14,17.992,0.35,23.593c1.33,0.21,7.701,0.84,9.031,0.979l0.28,1.471
		c-1.681-0.141-9.871-0.28-13.722-0.28c-3.15,0-11.552,0.14-13.582,0.28l0.351-1.471c1.61-0.14,7.28-0.77,8.961-0.979
		c0.21-5.461,0.35-17.502,0.35-23.593V1767.599z"/>
	<path id="XMLID_89_" style="display:inline;fill:#FFFFFF;" d="M5149.87,1769.28c0-6.301-0.21-17.433-0.49-19.603
		c-1.33-0.28-5.601-0.77-7.28-0.98l-0.28-1.47c1.681,0.07,3.99,0.14,6.301,0.21c2.311,0,4.62,0.07,6.16,0.07
		c2.24,0,18.692,0,20.583-0.49c0.21-0.84,0.42-2.03,0.56-3.29l1.61-0.28c-0.351,1.47-1.261,12.321-1.4,14.491l-1.54-0.49
		c0-0.489,0.07-3.64,0-5.04c-1.26-2.03-12.041-2.94-15.752-2.94c-0.21,0.98-0.49,14.491-0.49,18.622v1.4
		c6.021,0,12.812-0.49,14.492-1.12c0.35-1.051,0.56-2.03,0.7-3.011l1.47-0.14c-0.21,1.26-1.47,10.851-1.82,13.091l-1.33-0.56
		c0.07-1.471,0.14-3.291,0.14-4.69c-2.17-1.12-7.63-1.54-13.651-1.54v1.399c0,4.271,0.28,19.532,0.49,21.563
		c7.001,0,13.582-0.56,16.802-2.38c0.771-2.45,1.12-4.621,1.54-6.161l1.61-0.42c-0.49,2.03-2.03,12.672-2.311,16.172l-1.47-0.28
		c0-1.89,0-3.15-0.07-4.271c-2.03-0.35-17.571-0.63-21.981-0.63c-2.381,0-7.911,0.14-10.642,0.28l0.35-1.471
		c1.12-0.069,5.321-0.49,7.211-0.979c0.28-1.261,0.49-14.142,0.49-21.843V1769.28z"/>
	<path id="XMLID_91_" style="display:inline;fill:#FFFFFF;" d="M5202.44,1772.15c0,9.101,0.07,20.792,0.351,22.192
		c1.75,0.42,5.95,0.84,7.351,0.979l0.351,1.471c-1.541-0.141-8.821-0.28-13.162-0.28c-2.38,0-8.82,0.14-10.921,0.28l0.28-1.471
		c1.189-0.069,5.95-0.7,7.421-0.979c0.279-2.94,0.35-15.892,0.35-22.753v-4.13c0-2.311-0.07-15.402-0.35-17.782
		c-1.4-0.28-6.021-0.84-7.352-0.98l-0.35-1.47c1.33,0.14,7.771,0.28,13.302,0.28c3.57,0,9.591-0.141,10.781-0.28l-0.351,1.47
		c-1.4,0.141-4.83,0.7-7.351,0.98c-0.28,1.4-0.351,9.521-0.351,18.132V1772.15z"/>
	<path id="XMLID_93_" style="display:inline;fill:#FFFFFF;" d="M5216.648,1747.507c3.92-0.141,10.501-0.21,15.961-0.49
		c1.54,2.38,15.612,20.022,16.802,21.282c1.82,1.96,12.951,15.472,15.191,17.361c0-7.771-0.069-32.343-1.47-35.983
		c-1.4-0.28-5.11-0.84-7.07-0.98l-0.351-1.47c1.33,0.14,8.891,0.28,10.432,0.28c1.54,0,7.351-0.141,8.82-0.28l-0.28,1.47
		c-0.91,0.141-3.43,0.7-5.32,0.98c-0.84,2.73-1.189,12.602-1.33,14.842c-0.21,3.29-0.77,32.693-1.19,35.493
		c-2.1-1.96-21.492-24.572-23.102-26.393c-0.98-1.05-14.282-17.292-16.592-19.952c-0.21,1.4,0.63,38.154,1.54,40.675
		c1.05,0.35,6.301,0.84,7.631,0.979l0.21,1.471c-1.261-0.141-8.541-0.28-10.361-0.28c-2.03,0-7.491,0.14-9.521,0.28l0.21-1.471
		c1.96-0.279,4.2-0.49,5.811-0.979c1.189-2.94,1.96-42.215,1.96-44.525c-1.61-0.35-5.041-0.699-7.701-0.84L5216.648,1747.507z"/>
	<path id="XMLID_95_" style="display:inline;fill:#FFFFFF;" d="M5288.818,1769.28c0-6.301-0.21-17.433-0.49-19.603
		c-1.33-0.28-5.601-0.77-7.28-0.98l-0.28-1.47c1.68,0.07,3.99,0.14,6.301,0.21c2.311,0,4.62,0.07,6.16,0.07
		c2.24,0,18.692,0,20.582-0.49c0.211-0.84,0.421-2.03,0.561-3.29l1.61-0.28c-0.351,1.47-1.261,12.321-1.4,14.491l-1.54-0.49
		c0-0.489,0.07-3.64,0-5.04c-1.26-2.03-12.041-2.94-15.752-2.94c-0.21,0.98-0.49,14.491-0.49,18.622v1.4
		c6.021,0,12.812-0.49,14.492-1.12c0.35-1.051,0.56-2.03,0.7-3.011l1.47-0.14c-0.21,1.26-1.47,10.851-1.82,13.091l-1.33-0.56
		c0.07-1.471,0.141-3.291,0.141-4.69c-2.171-1.12-7.631-1.54-13.652-1.54v1.399c0,4.271,0.28,19.532,0.49,21.563
		c7.001,0,13.582-0.56,16.802-2.38c0.771-2.45,1.12-4.621,1.54-6.161l1.61-0.42c-0.49,2.03-2.03,12.672-2.31,16.172l-1.471-0.28
		c0-1.89,0-3.15-0.07-4.271c-2.03-0.35-17.571-0.63-21.982-0.63c-2.38,0-7.91,0.14-10.641,0.28l0.35-1.471
		c1.12-0.069,5.321-0.49,7.211-0.979c0.28-1.261,0.49-14.142,0.49-21.843V1769.28z"/>
	<path id="XMLID_97_" style="display:inline;fill:#FFFFFF;" d="M5333.338,1766.969c0-2.521-0.069-15.962-0.35-17.292
		c-1.19-0.28-5.951-0.7-7.491-0.84l-0.21-1.471l15.122-0.069c6.65,0,14.981,0.069,19.742,1.96c3.71,1.47,6.021,4.131,6.021,7.98
		c0,4.411-4.48,10.222-9.871,13.231c0.77,1.75,12.041,20.093,19.322,27.793l-3.081,0.49c-4.9-2.24-23.522-23.732-24.643-25.202
		c-2.66,0.21-5.53,0.42-6.721,0.42v1.82c0,4.55,0.141,15.331,0.351,18.552c1.189,0.35,5.811,0.84,7.351,0.979l0.28,1.471
		c-1.75-0.141-8.821-0.28-12.041-0.28c-2.871,0-10.222,0.14-11.832,0.28l0.28-1.471c0.98-0.069,5.461-0.49,7.421-0.979
		c0.28-2.03,0.35-15.752,0.35-23.103V1766.969z M5341.179,1771.799c2.521,0,5.531-0.21,8.541-1.33
		c3.011-1.12,7.981-4.34,7.981-11.271c0-4.48-4.061-9.941-16.172-9.941c-0.21,2.87-0.351,15.401-0.351,20.372V1771.799z"/>
	<path id="XMLID_100_" style="display:inline;fill:#FFFFFF;" d="M5396.267,1803.583c0.141-0.979,1.12-8.751,1.12-11.48
		c0-1.82,0.42-9.381,0.21-11.062l1.61,0.42c-0.07,0.91,0.28,4.9,0.49,6.161c1.891,4.48,6.021,7.631,10.852,7.631
		c5.53,0,9.94-3.641,9.94-8.821c0-5.671-4.41-8.471-8.961-11.411c-6.86-4.48-12.321-8.401-12.321-16.312
		c0-5.461,4.061-12.321,14.422-12.321c4.13,0,7.771,0.84,9.451,1.26c0.489-1.68,0.84-3.78,1.26-5.671l1.61-0.21
		c-0.98,6.931-1.681,13.441-1.681,19.183l-1.609-0.7c0-2.38-0.141-4.061-0.28-5.32c-0.771-2.521-4.411-6.301-9.312-6.301
		c-6.021,0-8.541,3.851-8.541,7.001c0,4.55,4.761,7,10.081,10.36c5.812,3.641,11.691,7.562,11.691,16.382
		c0,9.731-7.7,15.262-17.222,15.262c-3.36,0-7.701-0.7-9.661-1.75c-0.35,1.33-1.05,4.69-1.54,7.28L5396.267,1803.583z"/>
	<path id="XMLID_102_" style="display:inline;fill:#FFFFFF;" d="M5480.83,1762.769c0-1.33-0.21-4.621-0.42-5.811
		c-1.33-3.081-7.841-8.121-16.871-8.121c-12.742,0-20.793,9.241-20.793,20.162c0,13.651,11.271,25.202,26.043,25.202
		c5.32,0,11.621-0.84,16.592-3.78l-0.98,3.011c-1.609,1.33-8.681,4.2-19.672,4.2c-2.59,0-10.221-0.28-15.892-3.08
		c-9.101-4.48-14.491-12.462-14.491-21.423c0-9.661,4.9-16.802,11.061-20.932c7.281-4.9,13.792-5.811,20.862-5.811
		c6.161,0,12.672,1.26,14.632,1.82c0.42-0.91,1.26-5.391,1.47-6.231l1.61-0.35c-1.05,7.701-1.47,14.981-1.54,21.632
		L5480.83,1762.769z"/>
	<path id="XMLID_104_" style="display:inline;fill:#FFFFFF;" d="M5498.535,1767.389c0-2.24-0.07-15.401-0.35-17.712
		c-1.261-0.28-5.601-0.84-7.352-0.98l-0.35-1.47c1.19,0.14,7.841,0.28,12.321,0.28c4.341,0,10.291-0.141,11.411-0.28l-0.35,1.47
		c-1.961,0.141-5.671,0.7-6.791,0.98c-0.28,1.891-0.561,10.151-0.561,16.172v3.431c1.751,0,26.253,0.279,29.054-0.21v-3.221
		c0-5.461,0-14.422-0.42-16.172c-1.19-0.28-4.901-0.84-6.931-0.98l-0.351-1.47c1.19,0.14,7.701,0.28,12.041,0.28
		c4.551,0,10.432-0.141,11.691-0.28l-0.42,1.47c-1.4,0.141-5.11,0.7-7.141,0.98c-0.351,1.4-0.49,15.821-0.49,17.712v4.9
		c0,8.121,0.14,19.672,0.63,22.053c1.4,0.279,5.671,0.91,7.071,0.979l0.35,1.471c-1.33-0.141-8.471-0.28-11.761-0.28
		c-3.011,0-9.591,0.14-11.972,0.28l0.351-1.471c1.05-0.069,5.67-0.7,6.931-0.979c0.42-2.381,0.42-11.271,0.42-18.692v-4.061
		c-3.291,0.07-28.073,1.4-29.054,1.61v2.45c0,7.141,0.28,16.102,0.561,18.692c1.891,0.42,5.391,0.91,6.791,0.979l0.35,1.471
		c-1.47-0.141-8.4-0.28-11.411-0.28c-3.641,0-10.221,0.14-12.321,0.28l0.42-1.471c1.61-0.069,5.951-0.7,7.281-0.979
		c0.279-3.291,0.35-15.052,0.35-20.372V1767.389z"/>
	<path id="XMLID_106_" style="display:inline;fill:#FFFFFF;" d="M5564.125,1765.499c0-6.3-0.14-13.861-0.35-15.821
		c-1.471-0.35-3.641-0.7-5.531-0.98l-0.21-1.47c1.96,0.14,6.44,0.28,11.831,0.28c3.221,0,8.611-0.141,10.361-0.28l-0.35,1.47
		c-1.891,0.211-5.041,0.561-7.281,0.98c-0.21,1.19-0.35,10.081-0.35,16.102v9.312c0,14.841,6.301,19.882,13.861,19.882
		c4.62,0,7.701-1.12,10.081-3.36c3.78-3.57,4.69-9.731,4.69-18.132v-6.44c0-2.24-0.07-15.052-0.35-17.362
		c-1.61-0.28-5.811-0.84-7.631-0.98l-0.49-1.47c1.75,0.14,7.001,0.28,11.341,0.28c3.641,0,7.351-0.141,8.541-0.28l-0.42,1.47
		c-1.19,0.28-3.08,0.561-4.9,0.98c-0.21,1.05-0.351,9.801-0.351,11.691v3.36c0,2.73,0.141,6.091,0.141,8.61
		c0,7.911-1.471,14.632-6.861,19.393c-3.22,2.87-7.7,4.9-14.631,4.9c-14.492,0-21.143-8.961-21.143-21.212V1765.499z"/>
	<path id="XMLID_108_" style="display:inline;fill:#FFFFFF;" d="M5626.354,1766.759c0-3.99-0.07-14.842-0.35-17.082
		c-1.54-0.28-5.671-0.84-7.491-0.98l-0.21-1.47c1.75,0.14,7.841,0.28,12.111,0.28c4.69,0,11.481-0.141,12.881-0.28l-0.35,1.47
		c-1.681,0.141-5.461,0.7-8.261,0.98c-0.28,2.24-0.351,12.321-0.351,17.922v2.521c0,9.171,0.07,22.612,0.351,24.152
		c8.331,0,14.071-1.82,16.731-3.57c1.05-2.38,1.96-6.021,2.521-7.98l1.68-0.28c-1.399,6.23-2.729,13.651-3.71,23.032l-1.61-0.35
		c0-0.98,0.351-6.301,0.351-8.191c-1.54-0.14-16.662-0.42-20.442-0.42c-3.5,0-9.941,0.14-11.901,0.28l0.28-1.471
		c1.05-0.069,5.95-0.49,7.421-0.979c0.279-3.081,0.35-16.592,0.35-23.522V1766.759z"/>
	<path id="XMLID_110_" style="display:inline;fill:#FFFFFF;" d="M5667.584,1769.28c0-6.301-0.21-17.433-0.49-19.603
		c-1.33-0.28-5.601-0.77-7.28-0.98l-0.28-1.47c1.68,0.07,3.99,0.14,6.301,0.21c2.311,0,4.62,0.07,6.16,0.07
		c2.24,0,18.692,0,20.582-0.49c0.211-0.84,0.421-2.03,0.561-3.29l1.61-0.28c-0.351,1.47-1.261,12.321-1.4,14.491l-1.54-0.49
		c0-0.489,0.07-3.64,0-5.04c-1.26-2.03-12.041-2.94-15.752-2.94c-0.21,0.98-0.49,14.491-0.49,18.622v1.4
		c6.021,0,12.812-0.49,14.492-1.12c0.35-1.051,0.56-2.03,0.7-3.011l1.47-0.14c-0.21,1.26-1.47,10.851-1.82,13.091l-1.33-0.56
		c0.07-1.471,0.141-3.291,0.141-4.69c-2.171-1.12-7.631-1.54-13.652-1.54v1.399c0,4.271,0.28,19.532,0.49,21.563
		c7.001,0,13.582-0.56,16.802-2.38c0.771-2.45,1.12-4.621,1.54-6.161l1.61-0.42c-0.49,2.03-2.03,12.672-2.31,16.172l-1.471-0.28
		c0-1.89,0-3.15-0.07-4.271c-2.03-0.35-17.571-0.63-21.982-0.63c-2.38,0-7.91,0.14-10.641,0.28l0.35-1.471
		c1.12-0.069,5.321-0.49,7.211-0.979c0.28-1.261,0.49-14.142,0.49-21.843V1769.28z"/>
</g>
<g id="XMLID_9_" style="display:none;">
	<g style="display:inline;">
		<defs>
			<rect id="XMLID_209_" x="5742" y="1574.07" width="331.125" height="248.344"/>
		</defs>
		<clipPath id="XMLID_220_">
			<use xlink:href="#XMLID_209_"  style="overflow:visible;"/>
		</clipPath>
		
			<rect id="XMLID_219_" x="5764.11" y="1615.224" style="clip-path:url(#XMLID_220_);fill:#D21420;" width="49.244" height="185.967"/>
		<g style="clip-path:url(#XMLID_220_);">
			<defs>
				<rect id="XMLID_210_" x="5742" y="1574.07" width="331.125" height="248.344"/>
			</defs>
			<clipPath id="XMLID_221_">
				<use xlink:href="#XMLID_210_"  style="overflow:visible;"/>
			</clipPath>
			<path id="XMLID_218_" style="clip-path:url(#XMLID_221_);fill:#D21420;" d="M5958.511,1688.804v40.907
				c7.69,0.187,13.87,6.468,13.87,14.204c0,7.737-6.18,14.013-13.87,14.204v42.687c30.926,0,56-25.071,56-56.001
				C6014.511,1713.875,5989.437,1688.804,5958.511,1688.804"/>
			<path id="XMLID_217_" style="clip-path:url(#XMLID_221_);fill:#D21420;" d="M5946.955,1729.366v-40.908
				c-7.688-0.188-13.869-6.466-13.869-14.203c0-7.736,6.18-14.015,13.869-14.205v-42.685c-30.925,0-56,25.07-56,56.001
				C5890.956,1704.295,5916.03,1729.366,5946.955,1729.366"/>
			
				<rect id="XMLID_216_" x="5958.529" y="1615.015" style="clip-path:url(#XMLID_221_);fill:#645E68;" width="24.099" height="58.281"/>
			
				<rect id="XMLID_215_" x="5990.568" y="1615.123" style="clip-path:url(#XMLID_221_);fill:#645E68;" width="24.101" height="57.899"/>
			
				<rect id="XMLID_214_" x="5890.14" y="1758.094" style="clip-path:url(#XMLID_221_);fill:#D21420;" width="68.494" height="42.667"/>
			<path id="XMLID_213_" style="clip-path:url(#XMLID_221_);fill:#645E68;" d="M5890.115,1688.899v40.907
				c7.691,0.187,13.871,6.468,13.871,14.204c0,7.737-6.18,14.014-13.871,14.204v42.686c30.926,0,56-25.071,56-56.001
				C5946.115,1713.97,5921.041,1688.899,5890.115,1688.899"/>
			<path id="XMLID_212_" style="clip-path:url(#XMLID_221_);fill:#645E68;" d="M5826.099,1615.224v114.217
				c7.871,0,14.251,6.381,14.251,14.252c0,7.871-6.381,14.251-14.251,14.251v43.247h49.244v-185.967H5826.099z"/>
			<path id="XMLID_211_" style="clip-path:url(#XMLID_221_);fill:#D21420;" d="M5826.195,1688.076v41.349
				c7.773,0.189,14.021,6.538,14.021,14.357c0,7.82-6.247,14.165-14.021,14.357v43.148c31.26,0,56.605-25.341,56.605-56.606
				C5882.8,1713.418,5857.456,1688.076,5826.195,1688.076"/>
		</g>
	</g>
</g>
<g id="XMLID_2_">
</g>
<g id="XMLID_201_">
</g>
<g id="XMLID_202_">
</g>
<g id="XMLID_203_">
</g>
<g id="XMLID_204_">
</g>
<g id="XMLID_205_">
</g>
</svg>
