<?xml version="1.0" encoding="utf-8"?>
<!-- Generator: Adobe Illustrator 26.0.2, SVG Export Plug-In . SVG Version: 6.00 Build 0)  -->
<svg version="1.1" id="Layer_1" xmlns="http://www.w3.org/2000/svg" xmlns:xlink="http://www.w3.org/1999/xlink" x="0px" y="0px"
	 viewBox="0 0 121.4 84.8" style="enable-background:new 0 0 121.4 84.8;" xml:space="preserve">
<style type="text/css">
	.st0{fill:#FFFFFF;}
</style>
<path class="st0" d="M118.9,13.2c-1.4-5.2-5.5-9.3-10.7-10.7C98.7,0,60.7,0,60.7,0s-38,0-47.5,2.5C8,3.9,3.9,8,2.5,13.2
	C0,22.7,0,42.4,0,42.4s0,19.8,2.5,29.2c1.4,5.2,5.5,9.3,10.7,10.7c9.5,2.5,47.5,2.5,47.5,2.5s38,0,47.5-2.5
	c5.2-1.4,9.3-5.5,10.7-10.7c2.5-9.5,2.5-29.2,2.5-29.2S121.4,22.7,118.9,13.2z M48.5,60.7V24.3l31.6,18.2L48.5,60.7z"/>
</svg>
