<?xml version="1.0" encoding="utf-8"?>
<!-- Generator: Adobe Illustrator 26.0.2, SVG Export Plug-In . SVG Version: 6.00 Build 0)  -->
<svg version="1.1" id="svg2474" xmlns:svg="http://www.w3.org/2000/svg"
	 xmlns="http://www.w3.org/2000/svg" xmlns:xlink="http://www.w3.org/1999/xlink" x="0px" y="0px" viewBox="0 0 989.5 564.2"
	 style="enable-background:new 0 0 989.5 564.2;" xml:space="preserve">
<style type="text/css">
	.st0{fill:#FFFFFF;}
</style>
<path id="path2465" class="st0" d="M11.2,257.1c-2.1,0-3.7,1.6-4,3.9L0,316l7.2,54c0.3,2.3,1.9,3.9,4,3.9c2,0,3.6-1.6,3.9-3.8l0,0
	l0,0l0,0l8.6-54l-8.6-55C14.8,258.7,13.2,257.1,11.2,257.1z M51.9,227c-0.3-2.4-2-4-4.1-4s-3.8,1.7-4.1,4L34,315.9l9.7,86.9
	c0.3,2.3,2,4,4.1,4s3.8-1.6,4.1-4L63,315.9L51.9,227z M205.2,145.1c-4,0-7.3,3.3-7.5,7.4L190,316l7.7,105.7c0.2,4.1,3.5,7.4,7.5,7.4
	s7.3-3.3,7.5-7.4l0,0l8.8-105.7l-8.8-163.5C212.4,148.3,209.2,145.1,205.2,145.1z M125.8,201.9c-3.1,0-5.6,2.4-5.8,5.7l-8.7,108.3
	l8.7,104.8c0.2,3.2,2.7,5.7,5.8,5.7c3,0,5.5-2.4,5.8-5.7l9.9-104.8l-9.9-108.4C131.4,204.3,128.9,201.9,125.8,201.9z M285.8,429
	c4.9,0,9-4,9.2-9.1l7.6-103.9L295,98.3c-0.2-5.1-4.2-9.1-9.2-9.1s-9,4-9.2,9.1L269.9,316l6.7,103.9C276.8,425,280.8,429,285.8,429z
	 M450.9,429.5c6.8,0,12.4-5.6,12.6-12.5v0.1V417l5.3-100.9l-5.3-251.4c-0.1-6.9-5.7-12.5-12.6-12.5c-6.8,0-12.5,5.6-12.6,12.5
	L433.6,316c0,0.2,4.7,101.1,4.7,101.1C438.4,423.9,444.1,429.5,450.9,429.5z M367.7,429.1c5.9,0,10.7-4.8,10.9-10.8v0.1l6.4-102.3
	l-6.5-219.3c-0.2-6.1-4.9-10.8-10.9-10.8s-10.7,4.7-10.9,10.8l-5.6,219.3l5.7,102.3C357,424.4,361.8,429.1,367.7,429.1z
	 M165.4,428.2c3.5,0,6.4-2.8,6.6-6.5l9.3-105.7L172,215.5c-0.3-3.7-3.1-6.5-6.6-6.5c-3.6,0-6.4,2.8-6.7,6.6l-8.2,100.5l8.2,105.7
	C158.9,425.4,161.8,428.2,165.4,428.2z M86.6,422.4c2.6,0,4.7-2,5-4.8L102.1,316L91.6,210.5c-0.3-2.8-2.4-4.9-5-4.9
	c-2.6,0-4.7,2-5,4.9L72.4,316l9.2,101.6C81.9,420.4,84,422.4,86.6,422.4z M409.1,93.1c-6.4,0-11.6,5.1-11.7,11.7l-5.2,211.3
	l5.2,101.7c0.1,6.5,5.3,11.6,11.7,11.6c6.4,0,11.6-5.1,11.7-11.7v0.1l5.9-101.7l-5.9-211.3C420.7,98.3,415.6,93.1,409.1,93.1z
	 M245.4,429.3c4.4,0,8.1-3.6,8.3-8.3l8.2-105l-8.2-200.9c-0.2-4.6-3.9-8.3-8.3-8.3c-4.5,0-8.2,3.6-8.3,8.3L229.9,316l7.2,105
	C237.2,425.6,240.9,429.3,245.4,429.3z M336.6,419.4L336.6,419.4l7-103.3l-7-225c-0.2-5.6-4.6-10-10-10c-5.5,0-9.9,4.4-10,10
	l-6.2,225l6.2,103.3c0.1,5.5,4.6,9.9,10,9.9C332.1,429.3,336.4,424.9,336.6,419.4L336.6,419.4z M867.9,186.3
	c-16.7,0-32.6,3.4-47.1,9.5C811.1,86.1,719.1,0,606.9,0c-27.5,0-54.2,5.4-77.9,14.5c-9.2,3.6-11.6,7.2-11.7,14.3v386.3
	c0.1,7.5,5.9,13.7,13.1,14.4c0.3,0,335.2,0.2,337.4,0.2c67.2,0,121.7-54.5,121.7-121.7S935.1,186.3,867.9,186.3z M492.5,28.5
	c-7.3,0-13.3,6-13.4,13.4l-5.6,274.2l5.5,99.5c0.1,7.3,6.1,13.3,13.4,13.3c7.3,0,13.3-6,13.4-13.4v0.1l6-99.5l-6-274.2
	C505.7,34.6,499.7,28.5,492.5,28.5z M98.3,507.2C83.9,503.8,80,502,80,496.3c0-4,3.2-8.2,13-8.2c8.3,0,14.8,3.4,20.6,9.3l13.1-12.7
	c-8.6-9-18.9-14.3-33.1-14.3c-17.9,0-32.5,10.1-32.5,26.6c0,17.9,11.7,23.2,28.4,27.1c17.1,3.9,20.2,6.5,20.2,12.3
	c0,6.9-5.1,9.9-15.8,9.9c-8.7,0-16.9-3-23.2-10.4l-13.1,11.7c6.9,10.1,20.1,16.5,35.3,16.5c24.8,0,35.7-11.7,35.7-28.9
	C128.6,515.5,112.7,510.6,98.3,507.2z M181.9,470.5c-24.8,0-39.4,19.2-39.4,46.8s14.7,46.8,39.4,46.8s39.5-19.2,39.5-46.8
	C221.3,489.7,206.6,470.5,181.9,470.5z M181.9,546.1c-14.7,0-20.8-12.6-20.8-28.8c0-16.2,6.1-28.8,20.8-28.8s20.8,12.6,20.8,28.8
	C202.6,533.6,196.5,546.1,181.9,546.1z M294.6,522.9c0,14.5-7.2,23.5-18.7,23.5s-18.6-9.2-18.6-23.7v-50.8h-18.2v51
	c0,26.5,14.8,41.3,36.7,41.3c23.1,0,36.9-15.2,36.9-41.5v-50.8h-18.2v51H294.6z M391.2,510.3c0,5.1,0.3,16.5,0.3,19.8
	c-1.2-2.3-4.2-6.9-6.4-10.3l-32.2-48h-17.4v90.8h17.9v-40c0-5.1-0.3-16.5-0.3-19.8c1.2,2.3,4.2,6.9,6.4,10.3l33.4,49.6h16.2v-90.8
	h-17.9V510.3L391.2,510.3z M460.9,471.9h-28.4v90.8h27.1c23.4,0,46.5-13.5,46.5-45.4C506,484.1,486.8,471.9,460.9,471.9z
	 M459.5,545.1h-8.9v-55.5h9.6c19.2,0,27.1,9.2,27.1,27.8C487.3,533.9,478.6,545.1,459.5,545.1z M562.2,488.5
	c8.2,0,13.4,3.6,16.6,9.9l16.9-7.8c-5.7-11.8-16.1-20.1-33.2-20.1c-23.7,0-40.3,19.2-40.3,46.8c0,28.7,16,46.8,39.7,46.8
	c16.5,0,27.4-7.7,33.6-20.5l-15.3-9.1c-4.8,8.1-9.6,11.6-17.8,11.6c-13.6,0-21.5-12.5-21.5-28.8
	C540.8,500.5,548.6,488.5,562.2,488.5z M629.6,471.9h-18.2v90.8H666v-17.9h-36.4L629.6,471.9L629.6,471.9z M713.9,470.5
	c-24.8,0-39.5,19.2-39.5,46.8s14.7,46.8,39.5,46.8s39.4-19.2,39.4-46.8S738.7,470.5,713.9,470.5z M713.9,546.1
	c-14.7,0-20.8-12.6-20.8-28.8c0-16.2,6.1-28.8,20.8-28.8c14.6,0,20.7,12.6,20.7,28.8C734.6,533.6,728.5,546.1,713.9,546.1z
	 M826.6,522.9c0,14.5-7.1,23.5-18.7,23.5c-11.6,0-18.6-9.2-18.6-23.7v-50.8h-18.2v51c0,26.5,14.8,41.3,36.7,41.3
	c23.1,0,36.8-15.2,36.8-41.5v-50.8h-18.2v51H826.6z M895.9,471.9h-28.4v90.8h27.1c23.4,0,46.5-13.5,46.5-45.4
	C941.1,484.1,921.9,471.9,895.9,471.9z M894.6,545.1h-9v-55.5h9.6c19.2,0,27.1,9.2,27.1,27.8C922.4,533.9,913.7,545.1,894.6,545.1z"
	/>
</svg>
